<svg x="0px" y="0px" viewBox="0 0 595.3 595.3" xmlns="http://www.w3.org/2000/svg">
    <style type="text/css">
        .st0{fill:#FFFFFF;}
        .st1{fill:#E30613;}
        .st2{fill:#3AAA35;}
        .st3{fill:#0069B4;}
    </style>
    <ellipse class="st0" cx="297.4" cy="297.8" rx="297.9" ry="297.4"/>
    <g>
        <circle class="st1" cx="190.1" cy="63" r="28.6"/>
        <circle class="st1" cx="256.9" cy="43" r="28.6"/>
        <circle class="st1" cx="326.8" cy="41" r="28.6"/>
        <circle class="st1" cx="394.4" cy="57.5" r="28.6"/>
        <path class="st1" d="M468.4,143.2C505.5,183.9,528,238,528,297.3c0,126.6-102.7,229.2-229.2,229.2S69.6,424,69.6,297.4  c0-71.2,32.5-134.8,83.5-176.9l0,0c4.9-5.1,8.1-12.2,8.1-19.9c0-15.9-12.9-28.9-28.9-28.9c-6,0-11.8,1.9-16.5,5.1l0,0  C52.6,129.4,12.1,208.8,12.1,297.4c0,158.4,128.4,286.7,286.7,286.7s286.7-128.3,286.7-286.7c0-75.2-28.9-143.6-76.3-194.8l0,0  c-4.9-4.2-11.3-6.5-18.2-6.5c-15.9,0-28.9,12.9-28.9,28.9C462.1,131.9,464.4,138.2,468.4,143.2L468.4,143.2z"/>
    </g>
    <g>
        <circle class="st2" cx="111.5" cy="285.9" r="29.8"/>
        <circle class="st2" cx="128.9" cy="217.3" r="29.8"/>
        <circle class="st2" cx="170.9" cy="160.1" r="29.8"/>
        <path class="st2" d="M308.4,139.7c82.9,4.9,148.5,73.7,148.5,157.8c0,87.3-70.7,158.1-158.1,158.1c-69.3,0-128.1-44.5-149.6-106.6   l-0.5-1.5c-4-11.6-15-20-28.1-20c-16.4,0-29.8,13.3-29.8,29.8c0,3.4,0.6,6.6,1.6,9.6l0.4,0.6c29.1,85.8,110.2,147.4,205.9,147.4   c120.1,0,217.4-97.3,217.4-217.4c0-115.5-90.7-210-204.5-217.1l0,0c-0.6,0,0.6,0,0,0c-16.4,0-31,13.2-31,29.7   C280.8,125.7,293,138.6,308.4,139.7L308.4,139.7z"/>
    </g>
    <g>
        <circle class="st3" cx="413.5" cy="317.7" r="28.7"/>
        <circle class="st3" cx="383.6" cy="378.2" r="28.7"/>
        <path class="st3" d="M429.1,234.4c2.2,4.1,3.8,9.4,3.8,14.4c0,15.8-12.8,28.7-28.7,28.7c-11.2,0-21.1-6.8-25.8-16.1l0,0   c-14-30-44.6-51-79.9-51c-48.5,0-87.9,39.4-87.9,87.9c0,42.9,31,78.5,71.5,86.3l0,0c13.5,2.4,23.9,14,23.9,28.2   c0,15.8-12.8,28.8-28.8,28.8c-1.9,0-5.8-0.5-7.8-0.9l0,0c-65.4-14.2-116.4-72.7-116.4-142.4c0-80.3,65-145.4,145.4-145.4   C355.8,152.9,405.4,186.5,429.1,234.4L429.1,234.4z"/>
    </g>
</svg>
