<?xml version="1.0" encoding="UTF-8" standalone="no"?>

<svg
   version="1.1"
   id="Calque_1"
   x="0px"
   y="0px"
   viewBox="0 0 256.00001 256.00001"
   xml:space="preserve"
   width="256"
   height="256"
   xmlns="http://www.w3.org/2000/svg">
    <defs
   id="defs167" />
<style
   type="text/css"
   id="style132">
	.st0{fill:#FFFFFF;}
	.st1{fill:#E30613;}
	.st2{fill:#3AAA35;}
	.st3{fill:#0069B4;}
</style>
    <rect
    class="st0"
    x="10"
    y="10"
    width="236"
    height="236"
    rx="50"
    />
<circle
   class="st0"
   cx="128"
   cy="128"
   id="ellipse134"
   style="stroke-width:0.349404"
   r="104" />
<ellipse
   class="st1"
   cx="90.540451"
   cy="45.89106"
   id="circle136"
   rx="9.9845591"
   ry="10.001345"
   style="stroke-width:0.349404" />
<ellipse
   class="st1"
   cx="113.86103"
   cy="38.89711"
   id="circle138"
   rx="9.9845591"
   ry="10.001345"
   style="stroke-width:0.349404" />
<ellipse
   class="st1"
   cx="138.26385"
   cy="38.197716"
   id="circle140"
   rx="9.9845591"
   ry="10.001345"
   style="stroke-width:0.349404" />
<ellipse
   class="st1"
   cx="161.86372"
   cy="43.96772"
   id="circle142"
   rx="9.9845591"
   ry="10.001345"
   style="stroke-width:0.349404" />
<path
   class="st1"
   d="m 187.69789,73.936786 c 12.952,14.232685 20.80698,33.151314 20.80698,53.888374 0,44.27168 -35.85364,80.15063 -80.01611,80.15063 -44.162474,0 -80.016117,-35.84398 -80.016117,-80.11566 0,-24.89846 11.34609,-47.139213 29.150724,-61.861474 v 0 c 1.710639,-1.783454 2.827795,-4.266306 2.827795,-6.958978 0,-5.560187 -4.503527,-10.106253 -10.089294,-10.106253 -2.094661,0 -4.119503,0.664425 -5.760322,1.783456 v 0 c -22.063781,18.39408 -36.202755,46.160055 -36.202755,77.143249 0,55.39206 44.825784,100.25823 100.089969,100.25823 55.26419,0 100.08996,-44.86617 100.08996,-100.25823 0,-26.29725 -10.08929,-50.216551 -26.63712,-68.121056 v 0 c -1.71064,-1.46873 -3.94495,-2.273033 -6.35381,-2.273033 -5.55086,0 -10.08929,4.511095 -10.08929,10.106255 0,2.412912 0.80295,4.616004 2.19939,6.36449 z"
   id="path144"
   style="stroke-width:0.349404" />
<g
   id="g154"
   transform="matrix(0.34911045,0,0,0.34969738,24.174555,23.860123)">
	<circle
   class="st2"
   cx="111.5"
   cy="285.89999"
   r="29.799999"
   id="circle146" />
	<circle
   class="st2"
   cx="128.89999"
   cy="217.3"
   r="29.799999"
   id="circle148" />
	<circle
   class="st2"
   cx="170.89999"
   cy="160.10001"
   r="29.799999"
   id="circle150" />
	<path
   class="st2"
   d="m 308.4,139.7 c 82.9,4.9 148.5,73.7 148.5,157.8 0,87.3 -70.7,158.1 -158.1,158.1 -69.3,0 -128.1,-44.5 -149.6,-106.6 l -0.5,-1.5 c -4,-11.6 -15,-20 -28.1,-20 -16.4,0 -29.8,13.3 -29.8,29.8 0,3.4 0.6,6.6 1.6,9.6 l 0.4,0.6 c 29.1,85.8 110.2,147.4 205.9,147.4 120.1,0 217.4,-97.3 217.4,-217.4 0,-115.5 -90.7,-210 -204.5,-217.1 v 0 c -0.6,0 0.6,0 0,0 -16.4,0 -31,13.2 -31,29.7 0.2,15.6 12.4,28.5 27.8,29.6 z"
   id="path152" />
</g>
<g
   id="g162"
   transform="matrix(0.34911045,0,0,0.34969738,24.174555,23.860123)">
	<circle
   class="st3"
   cx="413.5"
   cy="317.70001"
   r="28.700001"
   id="circle156" />
	<circle
   class="st3"
   cx="383.60001"
   cy="378.20001"
   r="28.700001"
   id="circle158" />
	<path
   class="st3"
   d="m 429.1,234.4 c 2.2,4.1 3.8,9.4 3.8,14.4 0,15.8 -12.8,28.7 -28.7,28.7 -11.2,0 -21.1,-6.8 -25.8,-16.1 v 0 c -14,-30 -44.6,-51 -79.9,-51 -48.5,0 -87.9,39.4 -87.9,87.9 0,42.9 31,78.5 71.5,86.3 v 0 c 13.5,2.4 23.9,14 23.9,28.2 0,15.8 -12.8,28.8 -28.8,28.8 -1.9,0 -5.8,-0.5 -7.8,-0.9 v 0 C 204,426.5 153,368 153,298.3 153,218 218,152.9 298.4,152.9 c 57.4,0 107,33.6 130.7,81.5 z"
   id="path160" />
</g>
</svg>
