<svg height="800" width="800" viewBox="0 0 512 512" xmlns="http://www.w3.org/2000/svg">
    <circle style="fill:#006df0" cx="355.22501" cy="341.5" r="156.77499"/>
    <circle style="fill:#d80027" cx="255.53" cy="170.5" r="156.77499"/>
    <circle style="fill:#91dc5a" cx="156.77499" cy="341.5" r="156.77499"/>
    <path style="fill:#ffffff" d="m 399.023,199.001 c 0,0 -100.395,-13.715 -143.023,21.116 -42.88,-35.039 -142.023,-21.116 -142.023,-21.116 0,0 34.389,98.73 86.343,118.271 -8.463,54.14 55.184,124.018 55.681,124.018 0.499,0 64.229,-70.123 55.621,-124.374 51.592,-19.785 87.401,-117.915 87.401,-117.915 z"/>
    <path style="fill:#ea348b" d="m 256,220.117 c 14.291,11.678 26.754,26.087 36.53,43.019 9.888,17.128 16.168,35.347 19.092,53.78 51.591,-19.786 90.066,-66.045 98.784,-122.155 C 357.575,174.829 298.627,185.286 256,220.117 Z"/>
    <path style="fill:#99eff2" d="m 311.624,316.916 c -17.426,6.683 -36.343,10.356 -56.121,10.356 -19.423,0 -38.015,-3.54 -55.182,-9.999 -8.463,54.14 12.08,110.071 55.681,145.633 43.697,-35.64 64.23,-91.739 55.622,-145.99 z"/>
    <path style="fill:#ffda44" d="m 200.32,317.272 c 2.9,-18.554 9.198,-36.898 19.152,-54.136 9.774,-16.932 22.238,-31.339 36.529,-43.019 -42.88,-35.039 -102.273,-45.415 -155.344,-25.003 8.878,56.291 47.71,102.617 99.663,122.158 z"/>
    <path style="fill:#ffffff" d="m 256,220.117 c -14.291,11.678 -26.753,26.087 -36.529,43.019 -9.952,17.24 -16.251,35.584 -19.152,54.136 17.167,6.458 35.759,9.999 55.182,9.999 19.778,0 38.695,-3.671 56.121,-10.356 -2.926,-18.434 -9.204,-36.653 -19.092,-53.78 -9.774,-16.931 -22.238,-31.338 -36.53,-43.018 z"/>
</svg>
