<?xml version="1.0" encoding="UTF-8" standalone="no"?>
<svg viewBox="0 0 14 14" width="14" height="14" xmlns="http://www.w3.org/2000/svg" id="3d-axis" version="1.1">
  <path fill="#000" d="M 6.99514,1.80245 6.2576,3.98086 c 0.15422,0.0866 0.32769,0.14517 0.50913,0.1732 V 7.51525 L 5.78804,8.08032 V 9.16196 L 2.91913,10.81834 C 2.80412,10.67521 2.66662,10.55428 2.51454,10.464 L 1,12.19755 3.25533,11.74707 c -0.002,-0.17683 -0.0381,-0.35636 -0.10457,-0.52751 l 2.82694,-1.63214 1.02069,0.58932 1.02069,-0.58932 2.82694,1.63214 c -0.0664,0.17116 -0.10244,0.35069 -0.10459,0.52755 L 13,12.19196 11.48222,10.46402 c -0.15208,0.0903 -0.28956,0.2112 -0.40457,0.35433 L 8.20877,9.16199 V 8.08032 L 7.23002,7.51522 V 4.15406 c 0.18145,-0.028 0.35493,-0.0866 0.50916,-0.1732 z" />
</svg>
