<?xml version="1.0" encoding="UTF-8" standalone="no"?>
<!-- Created with Inkscape (http://www.inkscape.org/) -->

<svg
   width="800"
   height="800"
   viewBox="0 0 211.66666 211.66667"
   version="1.1"
   id="svg1"
   xmlns="http://www.w3.org/2000/svg"
   xmlns:svg="http://www.w3.org/2000/svg">
  <defs
     id="defs1" />
  <g
     id="layer1"
     style="stroke-width:19.8438;stroke-dasharray:none"
     transform="matrix(0.79458371,0,0,0.78489076,21.731859,21.582831)">
    <path
       id="rect3"
       style="fill:#000000;fill-opacity:1;stroke:#000000;stroke-width:7.19148;stroke-dasharray:none"
       d="M 139.69264,3.0655225 A 69.109754,69.993009 0 0 0 70.680948,71.672701 h 39.970622 c 16.84676,0 30.40948,13.736062 30.40948,30.798139 V 142.9523 A 69.109754,69.993009 0 0 0 208.80244,73.058586 69.109754,69.993009 0 0 0 139.69264,3.0655225 Z M 141.06105,142.9523 a 69.109754,69.993009 0 0 1 -1.36841,0.0994 69.109754,69.993009 0 0 1 -69.109789,-69.993052 69.109754,69.993009 0 0 1 0.09809,-1.385885 H 33.293915 c -16.846757,0 -30.4094807,13.736063 -30.4094807,30.798137 v 78.34631 c 0,17.06207 13.5627237,30.79813 30.4094807,30.79813 h 77.357655 c 16.84676,0 30.40948,-13.73606 30.40948,-30.79813 z" />
  </g>
</svg>
