<?xml version="1.0" encoding="UTF-8" standalone="no"?>
<!-- Created with Inkscape (http://www.inkscape.org/) -->

<svg
   width="800"
   height="800"
   viewBox="0 0 211.66667 211.66667"
   version="1.1"
   id="svg1"
   xml:space="preserve"
   inkscape:export-filename="roi_interior.svg"
   inkscape:export-xdpi="96"
   inkscape:export-ydpi="96"
   xmlns:inkscape="http://www.inkscape.org/namespaces/inkscape"
   xmlns:sodipodi="http://sodipodi.sourceforge.net/DTD/sodipodi-0.dtd"
   xmlns="http://www.w3.org/2000/svg"
   xmlns:svg="http://www.w3.org/2000/svg"><sodipodi:namedview
     id="namedview1"
     pagecolor="#ffffff"
     bordercolor="#000000"
     borderopacity="0.25"
     inkscape:showpageshadow="2"
     inkscape:pageopacity="0.0"
     inkscape:pagecheckerboard="0"
     inkscape:deskcolor="#d1d1d1"
     inkscape:document-units="px"
     showguides="true"
     inkscape:zoom="1.0367953"
     inkscape:cx="558.93385"
     inkscape:cy="388.21549"
     inkscape:window-width="2560"
     inkscape:window-height="1369"
     inkscape:window-x="-8"
     inkscape:window-y="-8"
     inkscape:window-maximized="1"
     inkscape:current-layer="layer1"><sodipodi:guide
       position="21.166667,673.90793"
       orientation="-1,0"
       id="guide1"
       inkscape:locked="false"
       inkscape:label=""
       inkscape:color="rgb(0,134,229)" /><sodipodi:guide
       position="190.5,601.49361"
       orientation="-1,0"
       id="guide2"
       inkscape:locked="false"
       inkscape:label=""
       inkscape:color="rgb(0,134,229)" /><sodipodi:guide
       position="76.465474,190.5"
       orientation="0,1"
       id="guide3"
       inkscape:locked="false"
       inkscape:label=""
       inkscape:color="rgb(0,134,229)" /><sodipodi:guide
       position="116.97698,21.166667"
       orientation="0,1"
       id="guide4"
       inkscape:locked="false"
       inkscape:label=""
       inkscape:color="rgb(0,134,229)" /><sodipodi:guide
       position="102.85593,105.83334"
       orientation="0,1"
       id="guide5"
       inkscape:locked="false"
       inkscape:label=""
       inkscape:color="rgb(0,134,229)" /><sodipodi:guide
       position="105.83334,86.07417"
       orientation="-1,0"
       id="guide6"
       inkscape:locked="false"
       inkscape:label=""
       inkscape:color="rgb(0,134,229)" /></sodipodi:namedview><defs
     id="defs1" /><g
     inkscape:label="Calque 1"
     inkscape:groupmode="layer"
     id="layer1"><path
       d="M 21.166667,21.166667 V 190.5 H 190.5 V 21.166667 Z M 131.00079,29.27625 a 51.384237,51.387953 0 0 1 51.38395,51.388078 51.384237,51.387953 0 0 1 -50.36696,51.355522 v 27.77608 c 0,12.51731 -10.08363,22.59449 -22.60947,22.59449 H 51.891407 c -12.52584,0 -22.609473,-10.07718 -22.609473,-22.59449 v -57.55462 c 0,-12.517312 10.083633,-22.594491 22.609473,-22.594491 H 79.705214 A 51.384237,51.387953 0 0 1 131.00079,29.27625 Z"
       style="fill-opacity:0.5;stroke-width:19.4065;stroke-linecap:round;stroke-linejoin:round"
       id="path27" /><g
       id="g22"
       transform="matrix(0.77613526,0,0,0.77560674,23.632338,23.6464)"
       style="stroke-width:24.9545;stroke-dasharray:none"><path
         d="m 139.64762,139.72732 v -38.39387 c 0,-16.138732 -12.9921,-29.131371 -29.13084,-29.131371 H 72.246268 a 66.205261,66.255165 0 0 0 -0.114521,1.311888 66.205261,66.255165 0 0 0 66.205553,66.254663 66.205261,66.255165 0 0 0 1.31032,-0.0413 z"
         style="fill-opacity:0;stroke:#000000;stroke-width:20.9114"
         id="path30" /><path
         d="m 139.64762,139.72732 a 66.205261,66.255165 0 0 1 -1.31032,0.0413 66.205261,66.255165 0 0 1 -66.205553,-66.254663 66.205261,66.255165 0 0 1 0.114521,-1.311888 H 36.40998 c -16.138734,0 -29.1308415,12.992639 -29.1308415,29.131371 v 74.20594 c 0,16.13873 12.9921075,29.13137 29.1308415,29.13137 h 74.1068 c 16.13874,0 29.13084,-12.99264 29.13084,-29.13137 z"
         style="fill-opacity:0;stroke:#000000;stroke-width:20.9114"
         id="path29" /><path
         d="M 138.3373,7.2586394 A 66.205261,66.255165 0 0 0 72.246268,72.202079 h 38.270512 c 16.13874,0 29.13084,12.992639 29.13084,29.131371 v 38.39387 A 66.205261,66.255165 0 0 0 204.54218,73.513967 66.205261,66.255165 0 0 0 138.3373,7.2586394 Z"
         style="fill-opacity:0;stroke:#000000;stroke-width:20.9114"
         id="path28" /></g></g></svg>
