<svg width="800" height="800" viewBox="0 0 24 24" xmlns="http://www.w3.org/2000/svg">
  <path fill-rule="evenodd" clip-rule="evenodd" d="m 12.2101,4.5463 c -0.1333,-0.06173 -0.2869,-0.06173 -0.4202,0 L 6.78987,6.86209 C 6.61312,6.94395 6.5,7.12101 6.5,7.31579 v 3.90701 l -3.765,2.3531 c -0.15008,0.0938 -0.23939,0.26 -0.23483,0.4369 0.00455,0.1769 0.1023,0.3383 0.25701,0.4242 l 9.00002,5 c 0.1575,0.0875 0.3498,0.0835 0.5035,-0.0104 l 9,-5.5 c 0.1551,-0.0948 0.2466,-0.2663 0.2388,-0.4479 -0.0077,-0.1816 -0.1133,-0.3447 -0.2759,-0.426 L 17.5,11.1909 V 7.31579 c 0,-0.19478 -0.1131,-0.37184 -0.2899,-0.4537 z M 17.5,12.309 v 0.7963 c 0,0.1784 -0.0951,0.3433 -0.2495,0.4327 l -5,2.8947 c -0.1549,0.0897 -0.3461,0.0897 -0.501,0 L 6.74948,13.538 C 6.59507,13.4486 6.5,13.2837 6.5,13.1053 v -0.7032 l -2.51605,1.5725 8.00405,4.4467 7.9815,-4.8776 z m -6,-2.1759 -4,-2.00702 V 12.817 l 4,2.3158 z m 5,2.6839 -4,2.3158 v -4.9997 l 4,-2.00702 z M 15.8492,7.33381 12,9.26515 8.15081,7.33381 12,5.55103 Z" style="fill:#000000" />
</svg>
