<svg width="800" height="800" viewBox="0 0 76 76" xmlns="http://www.w3.org/2000/svg">
    <path fill="#000000" fill-opacity="1" stroke-width="0.2" stroke-linejoin="round"
          d="m 19,43.32 h 3.1667 v 4.75 H 53.8333 V 43.32 H 57 v 7.9167 H 19 Z m 12.2693,-8.7279 0.5321,3.2995 c -0.4095,0.196 -0.965,0.357 -1.6663,0.483 -0.7014,0.126 -1.4859,0.1911 -2.3535,0.1954 -2.3201,-0.0258 -4.1346,-0.6894 -5.4434,-1.9907 -1.3087,-1.3013 -1.9746,-3.0853 -1.9974,-5.352 0.0046,-2.1388 0.6857,-3.8948 2.0433,-5.2681 1.3576,-1.3732 3.3636,-2.0833 6.0182,-2.13 l 1.803,0.1404 1.6256,0.4057 -0.7094,3.1067 c -0.5123,-0.2632 -1.3498,-0.4095 -2.5123,-0.4387 -1.1976,0.0208 -2.1421,0.3962 -2.8333,1.1264 -0.6913,0.7302 -1.0375,1.6909 -1.0388,2.882 0.0284,1.3063 0.4151,2.2999 1.1602,2.9808 0.7451,0.6809 1.6786,1.0235 2.8005,1.0278 1.0493,-0.0098 1.9065,-0.1658 2.5715,-0.4682 z m 2.9735,3.6824 v -9.6354 l -0.1182,-4.5144 h 3.8129 l 0.1773,1.9302 h 0.0887 c 0.3032,-0.4922 0.8134,-0.9773 1.5306,-1.4553 0.7171,-0.4779 1.7006,-0.7348 2.9502,-0.7704 0.9593,0.0089 1.7816,0.2265 2.4669,0.6527 0.6853,0.4263 1.187,1.0077 1.5052,1.7442 h 0.0591 c 0.5558,-0.7419 1.1711,-1.3126 1.8459,-1.712 0.7513,-0.4423 1.6303,-0.6706 2.6368,-0.6849 1.4091,-0.0097 2.1676,0.4805 3.067,1.4704 0.8994,0.9899 1.3641,2.5375 1.394,4.6429 v 8.332 H 51.2847 V 30.579 c 0.0018,-1.0337 -0.1648,-1.8305 -0.4998,-2.3903 -0.3351,-0.5599 -0.4532,-0.8432 -1.1461,-0.8498 -0.5109,0.0114 -0.9351,0.1621 -1.2723,0.452 -0.3373,0.2898 -0.5842,0.6502 -0.7408,1.0811 l -0.1417,1.1283 v 8.2742 h -4.3745 v -7.9559 c 0.0031,-0.8963 -0.1702,-1.6135 -0.5199,-2.1516 -0.3497,-0.5382 -0.8948,-0.8143 -1.6353,-0.8281 -0.5905,0.0217 -1.0635,0.1952 -1.4189,0.5207 -0.3553,0.3254 -0.6007,0.6725 -0.736,1.0414 -0.1366,0.3616 -0.1973,0.7377 -0.1821,1.1283 v 8.2452 z"/>
</svg>
