<?xml version="1.0" encoding="UTF-8" standalone="no"?>
<svg
        width="800"
        height="800"
        viewBox="0 0 211.66667 211.66667"
        version="1.1"
        id="roi-boolean-not"
        xml:space="preserve"
        xmlns="http://www.w3.org/2000/svg"
>
    <g>
        <path
                fill="#000"
                fill-opacity="0.5"
                d="M 21.166667,21.166667 V 190.5 H 190.5 V 21.166667 Z M 131.00079,29.27625 a 51.384237,51.387953 0 0 1 51.38395,51.388078 51.384237,51.387953 0 0 1 -50.36696,51.355522 v 27.77608 c 0,12.51731 -10.08363,22.59449 -22.60947,22.59449 H 51.891407 c -12.52584,0 -22.609473,-10.07718 -22.609473,-22.59449 v -57.55462 c 0,-12.517312 10.083633,-22.594491 22.609473,-22.594491 H 79.705214 A 51.384237,51.387953 0 0 1 131.00079,29.27625 Z"
        />
        <g transform="matrix(0.77613526,0,0,0.77560674,23.632338,23.6464)">
            <rect
                    fill="none"
                    stroke="#000"
                    stroke-width="25"
                    width="129.56589"
                    height="129.56589"
                    x="9.3003922"
                    y="72.800392"
                    rx="28.514406"
                    ry="0"
            />
            <ellipse
                    fill="none"
                    stroke="#000"
                    stroke-width="25"
                    cx="137.58334"
                    cy="74.083328"
                    rx="64.803238"
                    ry="64.80323"
            />
        </g>
    </g>
</svg>
